<?xml version="1.0" encoding="UTF-8" standalone="no"?>
<svg xmlns="http://www.w3.org/2000/svg" viewBox="0 0 100 100" width="100" height="100">
  <rect width="100" height="100" fill="#6B3E20" opacity="0.2"/>
  <path d="M50,20 C60,20 65,30 65,40 C65,45 60,55 50,55 C40,55 35,45 35,40 C35,30 40,20 50,20 Z" fill="#A67C52"/>
  <circle cx="43" cy="35" r="2" fill="#333"/>
  <circle cx="57" cy="35" r="2" fill="#333"/>
  <path d="M45,43 C45,45 50,47 55,43" stroke="#333" stroke-width="1" fill="none"/>
  <path d="M30,30 L38,33" stroke="#A67C52" stroke-width="3"/>
  <path d="M70,30 L62,33" stroke="#A67C52" stroke-width="3"/>
  <path d="M40,60 C45,70 55,70 60,60" fill="none" stroke="#A67C52" stroke-width="2"/>
  <path d="M30,75 C40,85 60,85 70,75 L65,65 L50,70 L35,65 Z" fill="#A67C52"/>
</svg>